<svg xmlns="http://www.w3.org/2000/svg">
  <!-- symbols: used for inline SVGs via <use> -->
  <symbol id="logo" viewBox="0 0 100 36.22">
    <path d="M8,.87V9.41h4.78v7.19A5.32,5.32,0,0,1,8,21.87v4.77A12.81,12.81,0,0,0,19.24,13.76,12.81,12.81,0,0,0,8,.87m-1,21a5.32,5.32,0,0,1-4.89-5.29V9.42H7V.64H0V32H7ZM7,9.44v7.14H3.07a4.32,4.32,0,0,0,8.64,0H8V9.44ZM2.69,38.82A2.61,2.61,0,0,0,.08,41.48a2.56,2.56,0,0,0,2.6,2.59,2.62,2.62,0,1,0,0-5.24m0,4.47a1.84,1.84,0,0,1,0-3.68,1.78,1.78,0,0,1,1.75,1.86A1.76,1.76,0,0,1,2.72,43.3m5-4.33H6.58v5h.8V41.85H7.6a3.15,3.15,0,0,0,.63-.06,1.43,1.43,0,0,0,1.07-1.41A1.39,1.39,0,0,0,7.74,39m-.15,2.11H7.38V39.7h.31c.47,0,.75.24.75.65s-.32.72-.85.72m3.67-1.34h1.3L12.4,39h-2v2.24h-.31v.74h.32v2h2.12V43.2h-1.3V41.95h1.42v-.74H11.26ZM16.74,42l-2.62-3.09H14V44h.82v-3L17.41,44h.13V39h-.8Zm6.1-1.19L22,39h-.87l1.31,2.74V44h.8V41.72L24.5,39h-.86ZM28,38.82a2.61,2.61,0,0,0-2.61,2.65,2.56,2.56,0,0,0,2.6,2.59,2.62,2.62,0,1,0,0-5.24m0,4.47a1.84,1.84,0,0,1,0-3.68,1.78,1.78,0,0,1,1.75,1.86A1.76,1.76,0,0,1,28,43.3m6.14-1.15c0,.87-.2,1.16-.78,1.16s-.74-.31-.74-.94V39h-.81v3.3a3.3,3.3,0,0,0,0,.51,1.53,1.53,0,0,0,1.56,1.3,1.61,1.61,0,0,0,.91-.27,1.57,1.57,0,0,0,.64-1.52V39h-.8Zm5.11-1.71c0-.89-.68-1.47-1.72-1.47h-1.2v5h.81V42l1.48,2,.65-.44L38.08,42a1.59,1.59,0,0,0,1.16-1.53m-2.1.82V39.72h.49a.7.7,0,0,1,.74.73.74.74,0,0,1-.84.82Zm9.23-2.47-1.11,2.76-1.09-2.76H44L42.64,44h.83l.74-2.84,1,2.63,1.05-2.65L47,44h.83l-1.33-5.17ZM49,44h.8V39H49Zm5-2-2.62-3.09H51.2V44H52v-3L54.65,44h.13V39H54Zm3.41-3H56.21v5h1.12a2.41,2.41,0,0,0,2.54-2.45A2.48,2.48,0,0,0,57.39,39m-.16,4.23H57V39.72h.19A1.74,1.74,0,0,1,59,41.48a1.69,1.69,0,0,1-1.78,1.72M65,38.81l-1.13,3.32h-.26l-.25.72h.25L63.3,44h.89l.36-1.11h1.32L66.26,44h.88l-1.85-5.15Zm-.27,3.32.4-1.22.43,1.22ZM71,42l-2.62-3.09h-.16V44h.82v-3L71.7,44h.13V39H71Zm3.41-3H73.25v5h1.12a2.41,2.41,0,0,0,2.54-2.45A2.48,2.48,0,0,0,74.44,39m-.16,4.23h-.23V39.72h.19a1.75,1.75,0,0,1,1.82,1.76,1.69,1.69,0,0,1-1.78,1.72m6-3.5h1.07V44h.81V39.71h1V39H80.47Zm5.4-.9-1.13,3.32h-.25l-.25.72h.25L83.95,44h.89l.36-1.11h1.32L86.9,44h.88l-1.86-5.15Zm-.27,3.32.4-1.22.43,1.22ZM90.5,41c-.83-.34-1-.47-1-.85a.68.68,0,0,1,.71-.64,3.71,3.71,0,0,1,1.14.26l.29-.64a3.55,3.55,0,0,0-1.38-.3,1.43,1.43,0,0,0-1.61,1.36,1.31,1.31,0,0,0,.44,1,4.66,4.66,0,0,0,1,.55l.39.16c.41.18.59.39.59.7a.79.79,0,0,1-.87.78,3.59,3.59,0,0,1-1.32-.31l-.06,0-.21.7a4.06,4.06,0,0,0,1.6.35,1.58,1.58,0,0,0,1.69-1.52,1.41,1.41,0,0,0-.41-1,2.76,2.76,0,0,0-1-.56m2.13-1.3h1.07V44h.81V39.71h1V39H92.81Zm4.79,0h1.3L98.57,39h-2v2.24H96.3v.74h.32v2h2.12V43.2h-1.3V41.95h1.42v-.74H97.43ZM27,27.1a3.81,3.81,0,0,1-1.66-.46l-.18.6a3.84,3.84,0,0,0,1.8.46,2.14,2.14,0,0,0,2.35-2,1.79,1.79,0,0,0-.5-1.23,3.08,3.08,0,0,0-1.29-.69c-1.24-.46-1.59-.77-1.59-1.38a1.21,1.21,0,0,1,1.31-1.13,4.65,4.65,0,0,1,1.49.31l.05,0L29,21a4.34,4.34,0,0,0-1.68-.36,1.89,1.89,0,0,0-2.13,1.8,1.62,1.62,0,0,0,.71,1.34,4.6,4.6,0,0,0,1.19.56,6.55,6.55,0,0,1,.73.3,1.15,1.15,0,0,1,.74,1.08A1.46,1.46,0,0,1,27,27.1m6.36-3.25h-.45v.62h.46v3.07h2.77v-.59H34V24.46h2.26v-.62H34V21.39H36.1l-.18-.59H33.31Zm7.3-3v6.74h2.51v-.59H41.31V20.8Zm9.22.59-.18-.59H47v3h-.45v.62H47v3.07H49.8v-.59H47.74V24.46H50v-.62H47.74V21.39ZM54,24.11a3.56,3.56,0,0,0,3.56,3.59,3.71,3.71,0,0,0,1.7-.4L59,26.72a3,3,0,0,1-1.45.37,2.94,2.94,0,0,1,0-5.87,3.52,3.52,0,0,1,1.39.33L59.2,21a4,4,0,0,0-1.58-.33A3.51,3.51,0,0,0,54,24.11m11,3.43V21.4h1.36v-.6H63.06l-.2.6h1.43v6.14Zm5.29,0H71V20.8h-.68Zm8.52-6.88a3.51,3.51,0,1,0,0,7,3.51,3.51,0,1,0,0-7m0,6.46a2.93,2.93,0,0,1-2.87-3.06,2.84,2.84,0,0,1,2.87-2.82,2.94,2.94,0,0,1,0,5.88m7.84-6.42v6.83h.69v-5l3.53,5.12h.23V20.8h-.68v5l-3.51-5.13ZM96.95,27.1a3.81,3.81,0,0,1-1.66-.46l-.18.6a3.84,3.84,0,0,0,1.8.46,2.14,2.14,0,0,0,2.35-2,1.79,1.79,0,0,0-.5-1.23,3.08,3.08,0,0,0-1.29-.69c-1.24-.46-1.59-.77-1.59-1.38a1.21,1.21,0,0,1,1.31-1.13,4.65,4.65,0,0,1,1.49.31l.05,0L99,21a4.34,4.34,0,0,0-1.68-.36,1.9,1.9,0,0,0-2.13,1.8,1.62,1.62,0,0,0,.71,1.34,4.58,4.58,0,0,0,1.19.56,6.83,6.83,0,0,1,.73.3,1.15,1.15,0,0,1,.74,1.08,1.46,1.46,0,0,1-1.59,1.37M28.13,10.7h.4a6.21,6.21,0,0,0,1.09-.09,3,3,0,0,0,2.31-3,3.38,3.38,0,0,0-.67-2,3.05,3.05,0,0,0-2.72-1H25.71v10.1h2.42Zm0-4h.34c.65,0,1,.34,1,.88s-.41.94-1.12.94h-.24ZM46,9.58a5.25,5.25,0,0,0-10.49-.09A5.25,5.25,0,1,0,46,9.58m-5.29,3a2.84,2.84,0,0,1-2.75-3.08,2.72,2.72,0,0,1,2.72-2.85,2.82,2.82,0,0,1,2.78,3,2.73,2.73,0,0,1-2.75,2.9m9.44-8v10.1h4.68V12.39H52.54V4.51Zm12.38-.26h-.58l-2.66,6.9h-.56l-.78,2.14h.5L58,14.62h2.46l.52-1.32H63.5L64,14.62h2.49Zm-1.07,6.9.84-1.94L63,11.15ZM76,9.37,70.82,4.18h-.39V14.62h2.33v-5l5.17,5.27h.41V4.51H76ZM87.81,6.73l-.46-2.21H82.91V8.85h-.66v2.2h.67v3.56h4.87V12.36h-2.4V11h2.74V8.85H85.39V6.73ZM99,8.22c0-2.26-1.57-3.69-4-3.69H92.38V14.62h2.4V10.52l2.05,4.29,2.34-.61L97.64,10.9A3.16,3.16,0,0,0,99,8.22m-4.17,1.9V6.72h.27a1.44,1.44,0,0,1,1.4,1.56,1.82,1.82,0,0,1-1.68,1.84M25.48.35H100V0H25.48Zm0,32H100V32H25.48Z"/>
  </symbol>
  <symbol id="menu-icon" viewBox="0 0 100 66.67">
    <path d="M100,66.67V55.56H0V66.67Zm0-27.78V27.78H0V38.89ZM0,11.11H100V0H0Z"/>
  </symbol>
  <symbol id="chevron-down" viewBox="0 0 100 61.69">
    <path d="M50,38.27,11.72,0,0,11.71l50,50,50-50L88.28,0Z"/>
  </symbol>
  <symbol id="close" viewBox="0 0 100 100">
    <path d="M90,0,49.83,39.8,10,0,0,10l39.8,39.8L0,89.63l10,10,39.8-39.8L90,99.67l10-10L59.87,49.83,100,10Z"/>
  </symbol>
  <symbol id="close-circle" viewBox="0 0 100 100">
    <path d="M49.88,42.86,37,30l-7,7L42.86,49.88,30,62.76l7,7L49.88,56.91,63,69.79l7-7L56.91,49.88,70,37l-7-7ZM0,49.88A48,48,0,0,0,14.64,85.13,48.19,48.19,0,0,0,50,99.77,48.19,48.19,0,0,0,85.36,85.13,48,48,0,0,0,100,49.88,48.06,48.06,0,0,0,85.36,14.64,48.19,48.19,0,0,0,50,0,48.19,48.19,0,0,0,14.64,14.64,48,48,0,0,0,0,49.88Zm10.07,0A38.6,38.6,0,0,1,21.78,21.55,38.47,38.47,0,0,1,50,9.84,38.47,38.47,0,0,1,78.22,21.55,38.61,38.61,0,0,1,89.93,49.88,38.6,38.6,0,0,1,78.22,78.22,38.46,38.46,0,0,1,50,89.93,38.45,38.45,0,0,1,21.78,78.22,38.58,38.58,0,0,1,10.07,49.88Z"/>
  </symbol>
  <symbol id="check" viewBox="0 0 100 74.83">
    <path d="M0,38.93,10.07,28.86l25.5,25.5L89.93,0,100,10.4,35.57,74.83Z"/>
  </symbol>
  <symbol id="left-arrow" viewBox="0 0 100 71.43">
    <path d="M40,67.46a3.94,3.94,0,0,0-1.17-2.81l-25.17-25H96a4,4,0,1,0,0-7.94H13.66l25.17-25A3.94,3.94,0,0,0,40,4a4,4,0,0,0-6.83-2.81l-32,31.75a3.94,3.94,0,0,0,0,5.61l32,31.75A4,4,0,0,0,40,67.46Z"/>
  </symbol>
  <symbol id="right-arrow" viewBox="0 0 100 71.43">
    <path d="M60,4a3.94,3.94,0,0,0,1.17,2.81l25.17,25H4a4,4,0,1,0,0,7.94H86.34l-25.17,25A3.94,3.94,0,0,0,60,67.46a4,4,0,0,0,6.83,2.81l32-31.75a3.94,3.94,0,0,0,0-5.61l-32-31.75A4,4,0,0,0,60,4Z"/>
  </symbol>
  <symbol id="search-icon" viewBox="0 0 100 100">
    <path d="M99.34,96,67.49,64.19a38.78,38.78,0,1,0-3.19,3.18L96.16,99.16A2.25,2.25,0,0,0,99.34,96ZM38.65,72.62a34,34,0,1,1,34.1-34A34.07,34.07,0,0,1,38.65,72.62Z"/>
  </symbol>
  <symbol id="fb-icon" viewBox="0 0 100 100">
    <path d="M85,35H74.9a4.58,4.58,0,0,0-3.51,1.53,4.91,4.91,0,0,0-1.4,3.4V50H85V65H70v35H55V65H44.94V50H55V37.56a17.18,17.18,0,0,1,5-12.44A16.51,16.51,0,0,1,72.33,20H85ZM0,100H99.95V0H0Z"/>
  </symbol>
  <symbol id="ig-icon" viewBox="0 0 100 100">
    <path d="M87.31,24.88H77.48q-2.58,0-2.57-2.35V12.44a2.28,2.28,0,0,1,2.57-2.58h9.83a2.28,2.28,0,0,1,2.57,2.58V22.54q0,2.35-2.57,2.35ZM10.06,87.56V45.07h10.3A25,25,0,0,0,19.9,50a29,29,0,0,0,8.78,21.24A28.82,28.82,0,0,0,49.86,80,28.83,28.83,0,0,0,71,71.24,29,29,0,0,0,79.82,50a30.72,30.72,0,0,0-.47-4.93H89.88V87.56a2.28,2.28,0,0,1-2.57,2.58H12.41q-2.34,0-2.34-2.58ZM70,50A20,20,0,0,1,50,70,20,20,0,0,1,30,50,20,20,0,0,1,50,30,20,20,0,0,1,70,50ZM10.06,0A9.7,9.7,0,0,0,2.93,2.93,9.48,9.48,0,0,0,0,9.86V90.14a9.47,9.47,0,0,0,2.93,6.92A9.7,9.7,0,0,0,10.06,100H89.88A9.71,9.71,0,0,0,97,97.07a9.49,9.49,0,0,0,2.93-6.92V9.86A9.49,9.49,0,0,0,97,2.93,9.71,9.71,0,0,0,89.88,0Z"/>
  </symbol>
  <symbol id="tw-icon" viewBox="0 0 100 100">
    <path d="M68,64.91Q57.81,75.82,41.43,76.53q-11,.47-21.53-6.1a25.92,25.92,0,0,0,10.53-.82A22.78,22.78,0,0,0,39.56,65q-9.6-.94-12.41-9.39a13.58,13.58,0,0,0,5.62-.23Q22.7,52.11,22.47,42a17.18,17.18,0,0,0,5.62,1.64q-3.51-2.11-5-7.63a13.17,13.17,0,0,1,1.05-10.21Q36,38.73,51.73,39.67a12,12,0,0,1,1.17-9,13.59,13.59,0,0,1,6.2-5.87,15,15,0,0,1,8.31-1.17,11.14,11.14,0,0,1,7.26,3.87,28.49,28.49,0,0,0,8.66-3.29,14.59,14.59,0,0,1-5.62,7.51A28.5,28.5,0,0,0,85,29.58q-1.4,2.82-6.55,7Q78.18,54,68,64.91ZM10.06,0A9.7,9.7,0,0,0,2.93,2.93,9.48,9.48,0,0,0,0,9.86V90.14a9.47,9.47,0,0,0,2.93,6.92A9.7,9.7,0,0,0,10.06,100H89.88A9.71,9.71,0,0,0,97,97.07a9.49,9.49,0,0,0,2.93-6.92V9.86A9.49,9.49,0,0,0,97,2.93,9.71,9.71,0,0,0,89.88,0Z"/>
  </symbol>
  <symbol id="play-icon" viewBox="0 0 100 100">
    <path d="M70,49.88,40,27.4v45Zm-70,0A48,48,0,0,0,14.64,85.13,48.19,48.19,0,0,0,50,99.77,48.19,48.19,0,0,0,85.36,85.13,48,48,0,0,0,100,49.88,48.06,48.06,0,0,0,85.36,14.64,48.19,48.19,0,0,0,50,0,48.19,48.19,0,0,0,14.64,14.64,48,48,0,0,0,0,49.88Zm10.07,0A38.6,38.6,0,0,1,21.78,21.55,38.46,38.46,0,0,1,50,9.84,38.47,38.47,0,0,1,78.22,21.55,38.61,38.61,0,0,1,89.93,49.88,38.6,38.6,0,0,1,78.22,78.22,38.46,38.46,0,0,1,50,89.93,38.45,38.45,0,0,1,21.78,78.22,38.58,38.58,0,0,1,10.07,49.88Z"/>
  </symbol>
  <symbol id="print-icon" viewBox="0 0 100 89.93">
    <path d="M15,25.06A14.49,14.49,0,0,0,4.33,29.39,14.48,14.48,0,0,0,0,40V70H19.91V89.93h60V70H100V40a14.3,14.3,0,0,0-4.45-10.66A14.61,14.61,0,0,0,85,25.06Zm15,54.8V55H70V79.86ZM79.86,39.93a5.21,5.21,0,1,1,1.52,3.51A4.82,4.82,0,0,1,79.86,39.93ZM19.91,0V19.91h60V0Z"/>
  </symbol>
  <!-- views: used for bg images -->
  <view xmlns="http://www.w3.org/2000/svg" id="logo-bg" viewBox="0 0 100 36.22"/>
  <view xmlns="http://www.w3.org/2000/svg" id="menu-icon-bg" viewBox="0 0 100 66.67"/>
  <view xmlns="http://www.w3.org/2000/svg" id="chevron-down-bg" viewBox="0 0 100 61.69"/>
  <view xmlns="http://www.w3.org/2000/svg" id="close-bg" viewBox="0 0 100 100"/>
  <view xmlns="http://www.w3.org/2000/svg" id="close-circle-bg" viewBox="0 0 100 100"/>
  <view xmlns="http://www.w3.org/2000/svg" id="check-bg" viewBox="0 0 100 74.83"/>
  <view xmlns="http://www.w3.org/2000/svg" id="left-arrow-bg" viewBox="0 0 100 71.43"/>
  <view xmlns="http://www.w3.org/2000/svg" id="right-arrow-bg" viewBox="0 0 100 71.43"/>
  <view xmlns="http://www.w3.org/2000/svg" id="search-icon-bg" viewBox="0 0 100 100"/>
  <view xmlns="http://www.w3.org/2000/svg" id="fb-icon-bg" viewBox="0 0 100 100"/>
  <view xmlns="http://www.w3.org/2000/svg" id="ig-icon-bg" viewBox="0 0 100 100"/>
  <view xmlns="http://www.w3.org/2000/svg" id="tw-icon-bg" viewBox="0 0 100 100"/>
  <view xmlns="http://www.w3.org/2000/svg" id="play-icon-bg" viewBox="0 0 100 100"/>
  <view xmlns="http://www.w3.org/2000/svg" id="print-icon-bg" viewBox="0 0 100 89.93"/>
  <!-- uses: shown when acceses directly on the browser -->
  <use id="u-logo" xlink:href="#logo" x="0" y="0" width="100" height="36.22"></use>
  <use id="u-menu-icon" xlink:href="#menu-icon" x="0" y="0" widht="100" height="66.67"></use>
  <use id="u-chevron-down" xlink:href="#chevron-down" x="0" y="0" width="100" height="61.69"></use>
  <use id="u-close" xlink:href="#close" x="0" y="0" width="100" height="100"></use>
  <use id="u-close-circle" xlink:href="#close-circle" x="0" y="0" width="100" height="100"></use>
  <use id="u-check" xlink:href="#check" x="0" y="0" width="100" height="74.83"></use>
  <use id="u-left-arrow" xlink:href="#left-arrow" x="0" y="0" width="100" height="71.43"></use>
  <use id="u-right-arrow" xlink:href="#right-arrow" x="0" y="0" width="100" height="71.43"></use>
  <use id="u-search-icon" xlink:href="#search-icon" x="0" y="0" width="100" height="100"></use>
  <use id="u-fb-icon" xlink:href="#fb-icon" x="0" y="0" width="100" height="100"></use>
  <use id="u-ig-icon" xlink:href="#ig-icon" x="0" y="0" width="100" height="100"></use>
  <use id="u-tw-icon" xlink:href="#tw-icon" x="0" y="0" width="100" height="100"></use>
  <use id="u-play-icon" xlink:href="#play-icon" x="0" y="0" width="100" height="100"></use>
  <use id="u-print-icon" xlink:href="#print-icon" x="0" y="0" width="100" height="89.93"></use>
</svg>
