<?xml version="1.0" encoding="UTF-8"?>
<svg width="37px" height="36px" viewBox="0 0 37 36" version="1.1" 
  xmlns="http://www.w3.org/2000/svg" 
  xmlns:xlink="http://www.w3.org/1999/xlink">
  <!-- Generator: Sketch 63.1 (92452) - https://sketch.com -->
  <title>books-stack-from-top-view</title>
  <desc>Created with Sketch.</desc>
  <g id="CFC-DESIGNS" stroke="none" stroke-width="1" fill="none" fill-rule="evenodd">
    <g id="Beliefs-SAFE-AND-WELCOMING-SCHOOLS" transform="translate(-908.000000, -1188.000000)">
      <g id="SIDE-NAV" transform="translate(865.000000, 840.000000)">
        <rect id="Rectangle" fill="#FFFFFF" x="0" y="0" width="497" height="540"></rect>
        <rect id="Rectangle" fill="#FFFFFF" x="5" y="6" width="484" height="534"></rect>
        <g id="books-stack-from-top-view" transform="translate(43.000000, 348.000000)" fill="#F69578" fill-rule="nonzero">
          <path d="M8.49001868,10 L29.9982071,9.99900734 L29.9982071,7.76576472 L8.49001868,7.76766733 C5.95769247,7.76766733 5.01597012,7.02002697 5.01597012,5.00699 C5.01597012,2.42060767 5.94327454,2.23324262 7.46985682,2.23324262 C7.63338452,2.23324262 7.79392405,2.23613788 7.95401536,2.23952948 C8.11754306,2.24242474 8.27808259,2.24532001 8.43376634,2.24532001 L30,2.24532001 L30,0.0120773946 L8.43376634,0.0120773946 C8.28898942,0.0120773946 8.13973023,0.00868579748 7.98710936,0.00579053165 C7.8174559,0.00289526583 7.64473957,0 7.47067856,0 C6.24769454,0 3,0 3,5.00699 C3,8.32074582 4.84721311,10 8.49001868,10 Z" id="Path"></path>
          <rect id="Rectangle" x="8" y="3" width="22" height="1"></rect>
          <rect id="Rectangle" x="8" y="4" width="22" height="1"></rect>
          <rect id="Rectangle" x="8" y="5" width="22" height="1"></rect>
          <path d="M37,23.0142438 L7.44638049,23.0142438 C7.24845443,23.0142438 7.04290102,23.0104401 6.83465106,23.0076075 C6.60251747,23.0038037 6.36599236,23 6.12615436,23 C4.45144874,23 0,23 0,29.5084573 C0,33.8168909 2.53158908,36 7.52380972,36 L37,35.9981386 L37,33.094907 L7.52380972,33.0967684 C4.05336235,33.0967684 2.76372268,32.1243035 2.76372268,29.5074861 C2.76372268,26.1440818 4.0340243,25.9021795 6.12615436,25.9021795 C6.35019834,25.9021795 6.57100647,25.9059833 6.78965736,25.909787 C7.01323908,25.9135098 7.23273746,25.9173136 7.44638049,25.9173136 L37,25.9173136 L37,23.0142438 L37,23.0142438 Z" id="Path"></path>
          <rect id="Rectangle" x="6" y="27" width="30" height="1"></rect>
          <rect id="Rectangle" x="6" y="29" width="30" height="1"></rect>
          <rect id="Rectangle" x="6" y="31" width="30" height="1"></rect>
          <path d="M29.904674,21.9928924 C30.1124431,21.9964844 30.3220528,22 30.5360343,22 C32.029916,22 36,22 36,16.4933128 C36,12.8477395 33.7422276,11 29.2903403,11 L3,11.0017578 L3,13.4581501 L29.2903403,13.4563923 C32.3836373,13.4563923 33.5354556,14.2787308 33.5354556,16.4933128 C33.5354556,19.3387873 32.4025812,19.5431491 30.536111,19.5431491 C30.336395,19.5431491 30.137676,19.5413914 29.9441724,19.5368823 C29.7435361,19.5342074 29.5474248,19.5306154 29.3575258,19.5306154 L3,19.5306154 L3,21.9866255 L29.3583695,21.9866255 C29.5339263,21.9866255 29.7166925,21.9902175 29.904674,21.9928924 Z" id="Path"></path>
          <rect id="Rectangle" x="5" y="17" width="27" height="1"></rect>
          <rect id="Rectangle" x="5" y="16" width="27" height="1"></rect>
          <rect id="Rectangle" x="5" y="14" width="27" height="1"></rect>
        </g>
      </g>
    </g>
  </g>
</svg>