<?xml version="1.0" encoding="UTF-8"?>
<svg width="48px" height="48px" viewBox="0 0 48 48" version="1.1" 
  xmlns="http://www.w3.org/2000/svg" 
  xmlns:xlink="http://www.w3.org/1999/xlink">
  <!-- Generator: Sketch 63.1 (92452) - https://sketch.com -->
  <title>presentation</title>
  <desc>Created with Sketch.</desc>
  <g id="CFC-DESIGNS" stroke="none" stroke-width="1" fill="none" fill-rule="evenodd">
    <g id="Beliefs-SAFE-AND-WELCOMING-SCHOOLS" transform="translate(-900.000000, -1066.000000)">
      <g id="SIDE-NAV" transform="translate(865.000000, 840.000000)">
        <rect id="Rectangle" fill="#FFFFFF" x="0" y="0" width="497" height="540"></rect>
        <rect id="Rectangle" fill="#FFFFFF" x="5" y="6" width="484" height="534"></rect>
        <g id="presentation" transform="translate(35.000000, 226.000000)" fill="#FF9B7E" fill-rule="nonzero">
          <path d="M10.3731429,40.3318726 L8.34198339,40.3318726 C10.0104186,39.7420618 11.2435847,38.1936495 11.2435847,36.2765442 C11.2435847,33.9171053 9.35761129,32 7.03627243,32 C4.71493356,32 2.82896014,33.9170074 2.82896014,36.2765442 C2.82896014,38.1935515 4.06212625,39.7419639 5.73056146,40.3318726 L3.62695349,40.3318726 C1.59589036,40.3318726 0,42.0277621 0,44.0185081 L0,47.2627121 C0,47.7051436 0.290179401,48 0.725352161,48 L13.2746478,48 C13.7099169,48 14,47.7050457 14,47.2627121 L14,44.0185081 C14,41.9540236 12.3316611,40.3318726 10.3731429,40.3318726 Z M4.27985714,36.2766421 C4.27985714,34.7282297 5.51302325,33.4747717 7.03636877,33.4747717 C8.55971428,33.4747717 9.79288039,34.7282297 9.79288039,36.2766421 C9.79288039,37.8250545 8.55971428,39.0785125 7.03636877,39.0785125 C5.51302325,39.0785125 4.27985714,37.751218 4.27985714,36.2766421 Z M1.45080066,46.5254241 L1.45080066,44.0185081 C1.45080066,42.7650501 2.46633223,41.8065464 3.62695349,41.8065464 L10.300598,41.8065464 C11.5337641,41.8065464 12.4767508,42.8387887 12.4767508,44.0185081 L12.4767508,46.5254241 L1.45080066,46.5254241 Z" id="Shape"></path>
          <path d="M27.3005017,40.3318216 L25.2694385,40.3318216 C26.9378738,39.7420145 28.1710399,38.1936116 28.1710399,36.276518 C28.1710399,33.9170936 26.2850664,32 23.9637276,32 C21.6423887,32 19.7564153,33.9170936 19.7564153,36.2766159 C19.7564153,38.1936116 20.9895814,39.7420145 22.6580166,40.3319195 L20.6269535,40.3319195 C18.5958904,40.3319195 17,42.0277987 17,44.0185325 L17,47.2627166 C17,47.7051454 17.2901794,48 17.7253522,48 L30.2746478,48 C30.7099169,48 31,47.7050475 31,47.2627166 L31,44.0185325 C30.9274551,41.9539626 29.3315648,40.3318216 27.3005017,40.3318216 Z M21.2072159,36.2766159 C21.2072159,34.728213 22.4403821,33.4747627 23.9637276,33.4747627 C25.4870731,33.4747627 26.7202392,34.728213 26.7202392,36.2766159 C26.7202392,37.8250188 25.4870731,39.0784692 23.9637276,39.0784692 C22.4403821,39.0784692 21.2072159,37.7511828 21.2072159,36.2766159 Z M29.4766545,46.5253352 L18.4507043,46.5253352 L18.4507043,44.0184345 C18.4507043,42.7649842 19.4662359,41.8064864 20.6268571,41.8064864 L27.3005017,41.8064864 C28.5336678,41.8064864 29.4766545,42.8387223 29.4766545,44.0184345 L29.4766545,46.5253352 Z" id="Shape"></path>
          <path d="M44.3541546,40.3318726 L42.3125121,40.3318726 C43.9896378,39.7420618 45.2292272,38.1936495 45.2292272,36.2765442 C45.2292272,33.9171053 43.3334302,32 41,32 C38.6665698,32 36.7707728,33.9170074 36.7707728,36.2765442 C36.7707728,38.1935515 38.0103622,39.7419639 39.6874879,40.3318726 L37.6458454,40.3318726 C35.604203,40.3318726 34,42.0277621 34,44.0185081 L34,47.2627121 C34,47.7051436 34.2916909,48 34.7291304,48 L47.2708696,48 C47.708406,48 48,47.7050457 48,47.2627121 L48,44.0185081 C48,41.9540236 46.3228743,40.3318726 44.3541546,40.3318726 Z M38.2291304,36.2766421 C38.2291304,34.7282297 39.4687197,33.4747717 41,33.4747717 C42.5312803,33.4747717 43.7708696,34.7282297 43.7708696,36.2766421 C43.7708696,37.8250545 42.5312803,39.0785125 41,39.0785125 C39.4687197,39.0785125 38.2291304,37.751218 38.2291304,36.2766421 Z M46.5416425,46.5254241 L35.385338,46.5254241 L35.385338,44.0185081 C35.385338,42.7650501 36.4061592,41.8065464 37.5728259,41.8065464 L44.3541546,41.8065464 C45.5937439,41.8065464 46.5416425,42.8387887 46.5416425,44.0185081 L46.5416425,46.5254241 L46.5416425,46.5254241 Z" id="Shape"></path>
          <path d="M24,8 C26.1817831,8 28,6.19814301 28,3.96391309 C28,1.72968316 26.1817831,0 24,0 C21.8182169,0 20,1.80185699 20,4.03608691 C20,6.27031684 21.8181204,8 24,8 Z M24,1.44146645 C25.3818217,1.44146645 26.5454458,2.59462047 26.5454458,4.03608691 C26.5454458,5.47755336 25.3818217,6.63070738 24,6.63070738 C22.6181783,6.63070738 21.4545542,5.47755336 21.4545542,4.03608691 C21.4545542,2.59462047 22.6181783,1.44146645 24,1.44146645 Z" id="Shape"></path>
          <path d="M35.9259791,23.2496759 C36.2222987,23.2496759 36.4445385,23.1030341 36.5925999,22.8830714 L38.8888801,18.7040723 C39.03704,18.4841096 39.03704,18.190826 38.8888801,17.9709606 C38.7407203,17.7509979 38.5184806,17.6043562 38.2222594,17.6043562 L30.5926196,17.6043562 L30.5926196,12.1789991 C30.5926196,9.906246 28.8888801,8 26.8889195,8 L21.1851604,8 C19.1111199,8 17.4814603,9.8329251 17.4814603,12.1789991 L17.4814603,17.6043562 L9.77774061,17.6043562 C9.481421,17.6043562 9.25918128,17.7509979 9.11111986,17.9709606 C8.96296005,18.1909233 8.96296005,18.4842069 9.11111986,18.7040723 L11.4074001,22.8830714 C11.5555599,23.1030341 11.7777996,23.2496759 12.0740209,23.2496759 L13.0369612,23.2496759 L16.0740406,37.3995383 C16.1481205,37.7661428 16.51852,38.059329 16.962901,37.9861055 C17.3333005,37.9127846 17.6295218,37.5461801 17.5555403,37.106352 L14.5925409,23.2497732 L33.4814407,23.2497732 L30.5184413,37.106352 C30.4443614,37.4729565 30.6666011,37.9127846 31.1110805,37.9861055 C31.48148,38.0594264 31.9258611,37.8394637 31.999941,37.3996356 L34.9629404,23.2497732 L35.9259791,23.2497732 L35.9259791,23.2496759 Z M21.1111789,9.46641798 L26.8148396,9.46641798 C28.0740996,9.46641798 29.03704,10.639455 29.03704,12.1790965 L29.03704,17.6044535 L28.0740996,17.6044535 L28.0740996,16.5047374 C28.0740996,16.064812 27.77778,15.7716258 27.3333989,15.7716258 C26.8889195,15.7716258 26.5926983,16.0649094 26.5926983,16.5047374 L26.5926983,17.6044535 L21.4074985,17.6044535 L21.4074985,16.5047374 C21.4074985,16.064812 21.1111789,15.7716258 20.6667978,15.7716258 C20.2223184,15.7716258 19.9260972,16.0649094 19.9260972,16.5047374 L19.9260972,17.6044535 L18.9631568,17.6044535 L18.9631568,12.1790965 L18.8890769,12.1790965 C18.8890769,10.7127759 19.9259988,9.46641798 21.1111789,9.46641798 Z M12.5185987,21.7833553 L11.037099,19.0706768 L36.9629994,19.0706768 L35.4814997,21.7833553 L12.5185987,21.7833553 Z" id="Shape"></path>
        </g>
      </g>
    </g>
  </g>
</svg>