<?xml version="1.0" encoding="UTF-8"?>
<svg width="46px" height="28px" viewBox="0 0 46 28" version="1.1" 
  xmlns="http://www.w3.org/2000/svg" 
  xmlns:xlink="http://www.w3.org/1999/xlink">
  <!-- Generator: Sketch 63.1 (92452) - https://sketch.com -->
  <title>graduation-student-black-cap</title>
  <desc>Created with Sketch.</desc>
  <g id="CFC-DESIGNS" stroke="none" stroke-width="1" fill="none" fill-rule="evenodd">
    <g id="Beliefs-SAFE-AND-WELCOMING-SCHOOLS" transform="translate(-906.000000, -1293.000000)">
      <g id="SIDE-NAV" transform="translate(865.000000, 840.000000)">
        <rect id="Rectangle" fill="#FFFFFF" x="0" y="0" width="497" height="540"></rect>
        <rect id="Rectangle" fill="#FFFFFF" x="5" y="6" width="484" height="534"></rect>
        <g id="graduation-student-black-cap" transform="translate(41.000000, 453.000000)" fill="#F98B6B" fill-rule="nonzero">
          <path d="M23.4997455,19.6196626 L8,14 L8.05301973,24.2980455 C8.05301973,24.2980455 15.3016227,28 23.4997455,28 C32.0598446,28 39,23.6336583 39,23.6336583 L38.935528,14.0080782 L23.4997455,19.6196626 Z" id="Path"></path>
          <polygon id="Path" points="43.1125559 10.5607395 46 9.48345758 23.0005071 0 0 9.48345758 23.0005071 18.0685485 41.3697962 11.2115363 41.3697962 21.1978862 40.2093086 21.1978862 40.2093086 26 44.0559381 26 44.0559381 21.1978862 43.1125559 21.1978862"></polygon>
        </g>
      </g>
    </g>
  </g>
</svg>