<?xml version="1.0" encoding="UTF-8"?>
<svg width="500px" height="141px" viewBox="0 0 500 141" version="1.1" xmlns="http://www.w3.org/2000/svg" xmlns:xlink="http://www.w3.org/1999/xlink">
    <title>novomer-logo</title>
    <g id="Page-1" stroke="none" stroke-width="1" fill="none" fill-rule="evenodd">
        <g id="Desktop-HD" transform="translate(0.000000, -201.000000)">
            <g id="Group-53" transform="translate(0.000000, 201.000000)">
                <polygon id="Fill-4" fill="#FFFFFF" points="12.1477093 19.5587785 8.70616435 13.4733675 8.09759848 13.6777184 8.09759848 72 0 72 0 1 8.09759848 1 46.6628375 54.5558629 49.2964588 59.5239786 49.9050246 59.4231301 49.9050246 1 58 1 58 72 49.9050246 72"></polygon>
                <polygon id="Fill-5" fill="#FFFFFF" points="178.034948 59.9300265 178.744932 63.6853063 179.354992 63.6853063 180.062346 59.9300265 200.665027 1 210 1 183.312495 72 174.687505 72 148 1 157.334973 1"></polygon>
                <polygon id="Fill-6" fill="#FFFFFF" points="366.923185 14.0837663 366.318994 13.9829178 365.61018 17.0242963 340.380597 72 333.8208 72 308.588602 17.0242963 307.681006 13.0673196 307.074199 13.170822 307.074199 72 299 72 299 1 309.498813 1 335.635991 59.2214331 336.744984 63.0749075 337.351791 63.0749075 338.664797 59.1179307 364.7052 1 375 1 375 72 366.923185 72"></polygon>
                <polygon id="Fill-7" fill="#FFFFFF" points="393 72 393 1 435 1 435 8.09654992 401.057548 8.09654992 401.057548 32.1383022 433.386924 32.1383022 433.386924 39.2348522 401.057548 39.2348522 401.057548 64.8981423 435 64.8981423 435 72"></polygon>
                <g id="Group-52" transform="translate(71.000000, 0.000000)">
                    <path d="M386.282987,8.84033208 L386.282987,35.4639925 L398.647191,35.4639925 C410.50295,35.4639925 416.019043,29.5267849 416.019043,22.1535019 C416.019043,14.8820302 410.50295,8.84033208 398.647191,8.84033208 L386.282987,8.84033208 Z M401.305931,42.6336528 L386.282987,42.6336528 L386.282987,73.3538792 L378.108154,73.3538792 L378.108154,1.67335094 L398.647191,1.67335094 C415.203413,1.67335094 424.193876,10.991766 424.193876,22.1535019 C424.193876,30.6520679 419.188876,37.9208604 409.684672,41.095766 L428.994969,73.3538792 L419.292154,73.3538792 L401.305931,42.6336528 Z" id="Fill-8" fill="#FFFFFF"></path>
                    <path d="M173.471181,64.5889962 C160.312533,62.5715245 150.183367,51.0802415 150.183367,37.2124679 C150.183367,23.3446943 160.312533,11.8560906 173.471181,9.83593962 L173.471181,1.02122264 C155.516737,3.0896 141.560996,18.4925811 141.560996,37.2124679 C141.560996,55.9323547 155.516737,71.3380151 173.471181,73.4063925 L173.471181,64.5889962 Z" id="Fill-10" fill="#FFFFFF"></path>
                    <path d="M181.753,1.03006415 L181.753,3.06093208 L181.753,9.84746038 C182.751352,10.0028566 183.731167,10.2118377 184.689796,10.4717245 C196.362833,13.6439509 204.985204,24.4171962 204.985204,37.2132717 C204.985204,51.0622906 194.885167,62.5374981 181.753,64.579083 L181.753,73.3964792 C199.680963,71.3039887 213.607574,55.9117245 213.607574,37.2132717 C213.607574,18.5121396 199.680963,3.12523396 181.753,1.03006415" id="Fill-12" fill="#FFFFFF"></path>
                    <path d="M270.555206,121.928596 C268.545261,126.065351 264.347946,128.926785 259.493891,128.926785 C252.693446,128.926785 247.161465,123.332521 247.161465,116.454898 C247.161465,109.574596 252.693446,103.980332 259.493891,103.980332 C264.347946,103.980332 268.545261,106.841766 270.555206,110.978521 L273.648243,110.978521 C271.46352,105.215464 265.950076,101.102823 259.493891,101.102823 C251.128391,101.102823 244.32265,107.991162 244.32265,116.454898 C244.32265,124.915955 251.128391,131.804294 259.493891,131.804294 C265.950076,131.804294 271.46352,127.691653 273.648243,121.928596 L270.555206,121.928596 Z" id="Fill-14" fill="#FFFFFF"></path>
                    <path d="M9.07705741,37.2130038 C9.07705741,21.9252302 21.3697611,9.49085283 36.4774463,9.49085283 C51.5851315,9.49085283 63.8778352,21.9252302 63.8778352,37.2130038 C63.8778352,52.5007774 51.5851315,64.9351547 36.4774463,64.9351547 C21.3697611,64.9351547 9.07705741,52.5007774 9.07705741,37.2130038 M66.7616685,127.849192 C60.3134278,127.849192 55.0700944,122.541608 55.0700944,116.017645 C55.0700944,109.496362 60.3134278,104.188777 66.7616685,104.188777 C71.2555759,104.188777 75.1589463,106.77157 77.1159278,110.543947 L81.5965944,110.543947 C79.3800944,104.416513 73.5753537,100.022551 66.7616685,100.022551 C65.8983722,100.022551 65.0562611,100.113645 64.2273907,100.247608 L52.9092056,69.6211547 C64.5319278,63.5740981 72.5002056,51.3460226 72.5002056,37.2130038 C72.5002056,17.083834 56.3729833,0.767230189 36.4774463,0.767230189 C16.5819093,0.767230189 0.454687037,17.083834 0.454687037,37.2130038 C0.454687037,57.3421736 16.5819093,73.6587774 36.4774463,73.6587774 C40.9369278,73.6587774 45.1925019,72.7987396 49.1329463,71.3010415 L60.2763537,101.447909 C54.7867426,103.958362 50.9522241,109.53923 50.9522241,116.017645 C50.9522241,124.837721 58.0439648,132.01274 66.7616685,132.01274 C73.5753537,132.01274 79.3800944,127.621457 81.5965944,121.494023 L77.1159278,121.494023 C75.1589463,125.263721 71.2555759,127.849192 66.7616685,127.849192" id="Fill-16" fill="#FFFFFF"></path>
                    <path d="M100.408509,125.348117 L100.408509,116.03506 C99.0500093,114.861551 97.0453611,114.143513 94.7785463,114.143513 C91.036713,114.143513 87.9383796,117.361287 87.9383796,121.334608 C87.9383796,125.270419 91.036713,128.528381 94.7785463,128.528381 C97.0824352,128.528381 99.2380278,127.654947 100.408509,125.348117 M100.220491,113.385287 L100.408509,113.310268 L100.408509,111.874192 L103.432694,111.874192 L103.432694,130.797702 L100.408509,130.797702 L100.408509,128.715928 L100.183417,128.600721 C98.8964167,130.114494 96.7434722,131.175475 94.0238241,131.175475 C88.9605648,131.175475 84.9168426,126.821702 84.9168426,121.334608 C84.9168426,115.847513 89.1115093,111.49374 94.3998611,111.49374 C97.0824352,111.49374 98.8964167,112.286796 100.220491,113.385287" id="Fill-18" fill="#FFFFFF"></path>
                    <path d="M107.393,111.873389 L110.454259,111.873389 L110.454259,105.815615 L113.475796,105.815615 L113.475796,111.873389 L119.068685,111.873389 L119.068685,114.520483 L113.475796,114.520483 L113.475796,124.551577 C113.475796,127.201351 114.874019,128.337351 116.878667,128.337351 C118.012074,128.337351 118.991889,128.224823 119.86313,127.84437 L120.617852,130.191389 C119.484444,130.759389 118.200093,130.984445 116.878667,130.984445 C113.210981,130.984445 110.454259,128.677615 110.454259,124.551577 L110.454259,114.520483 L107.393,114.520483 L107.393,111.873389 Z" id="Fill-20" fill="#FFFFFF"></path>
                    <path d="M138.37342,125.348117 L138.37342,116.03506 C137.012272,114.861551 135.010272,114.143513 132.743457,114.143513 C129.001624,114.143513 125.903291,117.361287 125.903291,121.334608 C125.903291,125.270419 129.001624,128.528381 132.743457,128.528381 C135.047346,128.528381 137.202939,127.654947 138.37342,125.348117 M138.185402,113.385287 L138.37342,113.310268 L138.37342,111.874192 L141.397606,111.874192 L141.397606,130.797702 L138.37342,130.797702 L138.37342,128.715928 L138.148328,128.600721 C136.861328,130.114494 134.708383,131.175475 131.988735,131.175475 C126.922828,131.175475 122.881754,126.821702 122.881754,121.334608 C122.881754,115.847513 127.07642,111.49374 132.364772,111.49374 C135.047346,111.49374 136.861328,112.286796 138.185402,113.385287" id="Fill-22" fill="#FFFFFF"></path>
                    <path d="M153.482165,131.138502 C150.04222,131.138502 147.81248,129.284464 147.81248,125.836275 L147.81248,103.167181 L150.836665,103.167181 L150.836665,125.836275 C150.836665,127.577785 152.121017,128.373521 153.86085,128.488728 L153.482165,131.138502 Z" id="Fill-24" fill="#FFFFFF"></path>
                    <path d="M165.418163,126.178951 L165.645904,127.199743 L165.870996,127.199743 L171.19907,111.87446 L174.676089,111.87446 L165.947793,134.163102 C164.663441,137.496083 162.960681,140.220875 157.974219,140.220875 L157.709404,137.611291 C160.807737,137.611291 162.168885,136.322574 163.228144,133.485253 L164.32183,130.492536 L156.123163,111.87446 L159.600181,111.87446 L165.418163,126.178951 Z" id="Fill-26" fill="#FFFFFF"></path>
                    <polygon id="Fill-28" fill="#FFFFFF" points="176.973887 111.873389 192.052443 111.873389 192.052443 113.764936 180.752794 127.959577 180.866665 128.147125 192.42848 128.147125 192.42848 130.796898 176.595202 130.796898 176.595202 128.905351 187.971646 114.520483 176.973887 114.520483"></polygon>
                    <path d="M198.960931,119.062072 L210.069913,119.062072 C209.918969,115.959506 207.689228,114.142977 204.818635,114.142977 C201.720302,114.142977 199.641506,116.337279 198.960931,119.062072 M213.131172,119.442525 L213.131172,121.711845 L198.733191,121.711845 C198.960931,126.065619 201.378691,128.447468 205.91232,128.527845 C207.916969,128.527845 209.84482,128.147392 211.468135,127.389166 L212.111635,129.851392 C210.183783,130.722147 208.067913,131.17494 205.91232,131.17494 C200.017543,131.17494 195.711654,127.466864 195.711654,121.37426 C195.711654,116.187242 199.376691,111.570902 204.778913,111.493204 C209.654154,111.493204 212.564469,114.330525 213.131172,119.442525" id="Fill-30" fill="#FFFFFF"></path>
                    <path d="M231.489989,125.951215 L231.489989,115.429819 C230.128841,114.634083 228.314859,114.143781 226.198989,114.143781 C222.459804,114.143781 219.358822,117.358875 219.358822,121.334875 C219.358822,125.270687 222.459804,128.52597 226.198989,128.52597 C228.277785,128.52597 230.242711,127.805253 231.489989,125.951215 M231.489989,113.0828 L231.489989,103.166913 L234.511526,103.166913 L234.511526,130.79797 L231.489989,130.79797 L231.489989,129.05646 L231.262248,128.978762 C230.01497,130.267479 227.975896,131.175743 225.444267,131.175743 C220.378359,131.175743 216.337285,126.82197 216.337285,121.334875 C216.337285,115.847781 220.531952,111.494008 225.822952,111.494008 C228.314859,111.494008 230.054693,112.062008 231.489989,113.0828" id="Fill-32" fill="#FFFFFF"></path>
                    <path d="M277.135589,103.165842 L280.157126,103.165842 L280.157126,114.330257 L280.384867,114.407955 C281.783089,112.703955 284.200848,111.492936 287.299181,111.492936 C291.041015,111.492936 294.139348,114.180219 294.139348,119.442257 L294.139348,130.796898 L291.117811,130.796898 L291.117811,119.442257 C291.117811,115.731502 289.076089,114.142709 286.544459,114.142709 C283.936033,114.142709 281.4812,115.316219 280.157126,117.700747 L280.157126,130.796898 L277.135589,130.796898 L277.135589,103.165842 Z" id="Fill-34" fill="#FFFFFF"></path>
                    <path d="M302.105507,119.062072 L313.214489,119.062072 C313.063544,115.959506 310.833804,114.142977 307.963211,114.142977 C304.864878,114.142977 302.786081,116.337279 302.105507,119.062072 M316.275748,119.442525 L316.275748,121.711845 L301.877767,121.711845 C302.105507,126.065619 304.523267,128.447468 309.056896,128.527845 C311.061544,128.527845 312.989396,128.147392 314.612711,127.389166 L315.256211,129.851392 C313.328359,130.722147 311.212489,131.17494 309.056896,131.17494 C303.162119,131.17494 298.85623,127.466864 298.85623,121.37426 C298.85623,116.187242 302.521267,111.570902 307.923489,111.493204 C312.79873,111.493204 315.709044,114.330525 316.275748,119.442525" id="Fill-36" fill="#FFFFFF"></path>
                    <path d="M350.089687,130.796898 L347.065502,130.796898 L347.065502,119.442257 C347.065502,115.731502 345.177372,114.142709 342.870835,114.142709 C340.566946,114.142709 338.337206,115.125992 337.166724,117.663238 C337.203798,118.003502 337.240872,118.346445 337.240872,118.68403 L337.240872,130.796898 L334.219335,130.796898 L334.219335,118.68403 C334.219335,115.503766 332.328557,114.142709 330.024669,114.142709 C327.567187,114.142709 325.263298,115.125992 324.01602,117.700747 L324.01602,130.796898 L320.991835,130.796898 L320.991835,111.873389 L324.01602,111.873389 L324.01602,114.257917 L324.243761,114.330257 C325.565187,112.666445 327.871724,111.492936 330.779391,111.492936 C333.160076,111.492936 335.275946,112.628936 336.37228,114.785728 C338.035317,112.744143 340.453076,111.492936 343.628206,111.492936 C347.219094,111.492936 350.089687,114.180219 350.089687,119.442257 L350.089687,130.796898 Z" id="Fill-38" fill="#FFFFFF"></path>
                    <path d="M356.31363,130.797434 L359.337815,130.797434 L359.337815,111.873925 L356.31363,111.873925 L356.31363,130.797434 Z M357.788648,104.037132 C358.808185,104.037132 359.639704,104.870377 359.639704,105.89117 C359.639704,106.877132 358.808185,107.710377 357.788648,107.710377 C356.806185,107.710377 355.974667,106.877132 355.974667,105.89117 C355.974667,104.870377 356.806185,104.037132 357.788648,104.037132 L357.788648,104.037132 Z" id="Fill-40" fill="#FFFFFF"></path>
                    <path d="M365.644115,127.238592 C367.458096,127.959309 369.423022,128.527309 371.274078,128.527309 C373.352874,128.527309 375.3178,127.619045 375.3178,125.537272 C375.3178,124.058328 374.335337,123.150064 371.237004,122.357008 C367.685837,121.448743 365.114485,119.819762 365.114485,116.907423 C365.114485,113.311875 368.289615,111.492668 371.803707,111.492668 C373.956652,111.492668 375.998374,112.098177 377.886504,112.934102 L377.054985,115.431158 C375.354874,114.747951 373.540893,114.142442 371.803707,114.142442 C369.875856,114.142442 368.13867,115.088215 368.13867,116.907423 C368.13867,118.19346 369.158207,119.101725 371.917578,119.744743 C375.884504,120.653008 378.339337,122.434706 378.339337,125.537272 C378.339337,129.398064 374.939115,131.174404 371.274078,131.174404 C369.044337,131.174404 366.814596,130.684102 364.812596,129.925875 L365.644115,127.238592 Z" id="Fill-42" fill="#FFFFFF"></path>
                    <path d="M380.790993,111.873389 L383.852252,111.873389 L383.852252,105.815615 L386.873789,105.815615 L386.873789,111.873389 L392.466678,111.873389 L392.466678,114.520483 L386.873789,114.520483 L386.873789,124.551577 C386.873789,127.201351 388.272011,128.337351 390.276659,128.337351 C391.410067,128.337351 392.39253,128.224823 393.261122,127.84437 L394.015844,130.191389 C392.882437,130.759389 391.598085,130.984445 390.276659,130.984445 C386.608974,130.984445 383.852252,128.677615 383.852252,124.551577 L383.852252,114.520483 L380.790993,114.520483 L380.790993,111.873389 Z" id="Fill-43" fill="#FFFFFF"></path>
                    <path d="M397.789985,111.873389 L400.81417,111.873389 L400.81417,113.992672 L401.041911,114.1052 C402.326263,112.591426 404.365337,111.492936 406.82017,111.492936 L407.352448,111.492936 L407.352448,114.142709 L406.444133,114.142709 C404.137596,114.142709 402.17267,115.2412 400.81417,116.982709 L400.81417,130.834408 L397.789985,130.834408 L397.789985,111.873389 Z" id="Fill-44" fill="#FFFFFF"></path>
                    <path d="M417.964637,126.178951 L418.192378,127.199743 L418.41747,127.199743 L423.745544,111.87446 L427.222563,111.87446 L418.494267,134.163102 C417.209915,137.496083 415.507156,140.220875 410.520693,140.220875 L410.255878,137.611291 C413.354211,137.611291 414.715359,136.322574 415.774619,133.485253 L416.868304,130.492536 L408.669637,111.87446 L412.146656,111.87446 L417.964637,126.178951 Z" id="Fill-45" fill="#FFFFFF"></path>
                    <path d="M191.750819,37.2130038 C191.750819,45.1328528 185.405856,51.5496453 177.580578,51.5496453 C169.752652,51.5496453 163.407689,45.1328528 163.407689,37.2130038 C163.407689,29.2931547 169.752652,22.8763623 177.580578,22.8763623 C185.405856,22.8763623 191.750819,29.2931547 191.750819,37.2130038" id="Fill-46" fill="#F1E009"></path>
                </g>
            </g>
        </g>
    </g>
</svg>