<?xml version="1.0" encoding="utf-8"?>
<!-- Generator: Adobe Illustrator 23.0.1, SVG Export Plug-In . SVG Version: 6.00 Build 0)  -->
<svg version="1.1" id="Layer_1" xmlns="http://www.w3.org/2000/svg" xmlns:xlink="http://www.w3.org/1999/xlink" x="0px" y="0px"
	 viewBox="0 0 78 58" style="enable-background:new 0 0 78 58;" xml:space="preserve">
<path d="M5,0C2.2,0,0,2.2,0,5s2.2,5,5,5h68c2.8,0,5-2.2,5-5s-2.2-5-5-5H5z M5,24c-2.8,0-5,2.2-5,5s2.2,5,5,5h68c2.8,0,5-2.2,5-5
	s-2.2-5-5-5H5z M5,48c-2.8,0-5,2.2-5,5s2.2,5,5,5h68c2.8,0,5-2.2,5-5s-2.2-5-5-5H5z"/>
</svg>
