<?xml version="1.0" encoding="UTF-8"?>
<svg width="95px" height="121px" viewBox="0 0 95 121" version="1.1" xmlns="http://www.w3.org/2000/svg" xmlns:xlink="http://www.w3.org/1999/xlink">
    <g id="svgs" transform="translate(0.000000, -76.000000)" stroke="#555656" stroke-width="6" fill="none" fill-rule="evenodd">
        <path d="M40.7891543,139.074329 L19.8809787,128.564563 L37.4874497,93.4786812 L42.0731505,95.7841675 L51.9992277,76 L63.7360015,81.8987926 L53.807304,101.68296 L58.2750869,104.20352 L55.3271363,110.09969 C77.4171126,111.169813 95,129.432727 95,151.808272 L94.6200419,197 L6.00595796,197 L6.00595796,194.655171 L38.045595,190.686797 C24.5452916,185.380769 14.4750924,173.236967 12.1010095,158.509657 L0,158.509657 L0,155.417315 L52.5364098,155.417315 L52.5364098,158.509657 L31.5496221,158.509657 C34.4084791,167.805042 43.0558007,174.56413 53.2779831,174.56413 C65.8349424,174.56413 76.0125779,164.374352 76.0125779,151.808272 C76.0125779,139.239568 65.8349424,129.055037 53.2779831,129.055037 C50.3667182,129.055037 47.5890936,129.621572 45.0289623,130.620879 L40.7891543,139.074329 Z" id="Stroke-47"></path>
    </g>
</svg>