<svg xmlns="http://www.w3.org/2000/svg" viewBox="0 0 14.514 15.352">
  <g id="Group_69" data-name="Group 69" transform="translate(0.002 0.002)">
    <path id="Path_49" data-name="Path 49" d="M1299.38,302.74l-.12-.12a3.87,3.87,0,0,0-5.47,0l-1.14,1.14a1.2,1.2,0,0,0,1.69,1.69l1.14-1.14a1.47,1.47,0,0,1,2.09,0l.12.12a1.47,1.47,0,0,1,0,2.09l-2.77,2.77a1.48,1.48,0,0,1-1.05.43,1.45,1.45,0,0,1-1-.43l-.12-.12-1.69,1.69.12.12a3.85,3.85,0,0,0,2.72,1.13h0a3.87,3.87,0,0,0,2.74-1.13l2.77-2.77a3.87,3.87,0,0,0,0-5.47Z" transform="translate(-1286.03 -301.49)"/>
    <path id="Path_50" data-name="Path 50" d="M1292.26,312.81l-1.2,1.2a1.48,1.48,0,0,1-1.05.43,1.45,1.45,0,0,1-1-.43l-.12-.12a1.47,1.47,0,0,1,0-2.09l2.77-2.77a1.47,1.47,0,0,1,2.09,0l.12.12h0l1.69-1.69h0l-.12-.12-.21-.21a1.2,1.2,0,0,0-.3-.22,3.87,3.87,0,0,0-5,.44l-2.77,2.77a3.87,3.87,0,0,0,0,5.47l.12.12a3.85,3.85,0,0,0,2.72,1.13h0a3.87,3.87,0,0,0,2.74-1.13l1.2-1.2a1.2,1.2,0,0,0-1.69-1.69Z" transform="translate(-1286.03 -301.49)"/>
  </g>
</svg>
