<?xml version="1.0" encoding="UTF-8"?>
<svg width="36px" height="41px" viewBox="0 0 36 41" version="1.1" 
  xmlns="http://www.w3.org/2000/svg" 
  xmlns:xlink="http://www.w3.org/1999/xlink">
  <!-- Generator: Sketch 63.1 (92452) - https://sketch.com -->
  <title>test (1)</title>
  <desc>Created with Sketch.</desc>
  <g id="CFC-DESIGNS" stroke="none" stroke-width="1" fill="none" fill-rule="evenodd">
    <g id="Beliefs-SAFE-AND-WELCOMING-SCHOOLS" transform="translate(-912.000000, -976.000000)">
      <g id="SIDE-NAV" transform="translate(865.000000, 840.000000)">
        <rect id="Rectangle" fill="#FFFFFF" x="0" y="0" width="497" height="540"></rect>
        <rect id="Rectangle" fill="#FFFFFF" x="5" y="6" width="484" height="534"></rect>
        <g id="test-(1)" transform="translate(47.000000, 136.000000)" fill="#FBA48B" fill-rule="nonzero">
          <path d="M36,25.8986467 L22.9420309,40.3571429 L14.4516014,32.3195452 L16.615328,30.0590472 L22.7660164,35.881801 L33.6654143,23.8129534 L36,25.8986467 Z M15.038071,37.1830706 L18.3347222,40.3039202 L4.70722212,40.3039202 C2.11168319,40.3039202 0,38.2040667 0,35.6227679 L0,5.03853936 C0,2.45699636 2.11168319,0.357142857 4.70722212,0.357142857 L20.6921383,0.357142857 L31.8426698,11.503139 L31.8426698,21.3214984 L28.7131956,24.7416644 L28.7131956,13.7072405 L23.134493,13.7072405 C20.5391996,13.7072405 18.4272709,11.607387 18.4272709,9.02633229 L18.4272709,3.47774836 L4.70722212,3.47774836 C3.84187883,3.47774836 3.13806626,4.17794361 3.13806626,5.03853936 L3.13806626,35.6227679 C3.13806626,36.4831194 3.84187883,37.1830706 4.70722212,37.1830706 L15.038071,37.1830706 Z M23.134493,10.586635 L26.5060178,10.586635 L21.5655826,5.65279717 L21.5655826,9.02633229 C21.5655826,9.88643973 22.2693952,10.586635 23.134493,10.586635 Z M6.27637798,26.8063616 L18.592975,26.8063616 L18.592975,23.6852679 L6.27637798,23.6852679 L6.27637798,26.8063616 Z M25.5753749,17.4440569 L6.27637798,17.4440569 L6.27637798,20.5646624 L25.5753749,20.5646624 L25.5753749,17.4440569 Z" id="Shape"></path>
        </g>
      </g>
    </g>
  </g>
</svg>