<?xml version="1.0" encoding="UTF-8"?>
<svg width="52px" height="49px" viewBox="0 0 52 49" version="1.1" 
  xmlns="http://www.w3.org/2000/svg" 
  xmlns:xlink="http://www.w3.org/1999/xlink">
  <!-- Generator: Sketch 63.1 (92452) - https://sketch.com -->
  <title>safe</title>
  <desc>Created with Sketch.</desc>
  <g id="CFC-DESIGNS" stroke="none" stroke-width="1" fill="none" fill-rule="evenodd">
    <g id="Beliefs-SAFE-AND-WELCOMING-SCHOOLS" transform="translate(-903.000000, -864.000000)">
      <g id="SIDE-NAV" transform="translate(865.000000, 840.000000)">
        <rect id="Rectangle" fill="#FFFFFF" x="0" y="0" width="497" height="540"></rect>
        <rect id="Rectangle" fill="#FFFFFF" x="5" y="6" width="484" height="534"></rect>
        <polygon id="Rectangle" fill="#F4744E" points="3 3 493 3 493 99 3 99"></polygon>
        <g id="safe" transform="translate(38.000000, 24.000000)" fill="#FFFFFF" fill-rule="nonzero">
          <path d="M25.5076786,18.7758889 C25.8537342,19.1267099 26.429143,19.055767 26.692129,18.6322729 L31.870402,10.2895697 C32.1078594,9.90717055 32.0097967,9.39153733 31.6515847,9.13804644 C31.2937777,8.88498822 30.8107586,8.98967209 30.5733011,9.37163868 L25.9068177,16.8898479 L23.3138317,14.2615027 C23.0022195,13.9457207 22.5098804,13.9595632 22.2136665,14.2922158 C21.9178577,14.6248684 21.9308247,15.150451 22.2424368,15.4662331 C22.2420316,15.4662331 25.504842,18.7732935 25.5076786,18.7758889 L25.5076786,18.7758889 Z" id="Path"></path>
          <path d="M25.1498086,29.8974284 C25.2956551,29.9644791 25.4570003,30 25.6175506,30 L25.623909,30 C25.7872412,29.9992017 25.9509706,29.9616853 26.0972145,29.8914417 C37.6997575,24.3497811 39.6661015,12.3932045 39.9919711,8.86067021 C40.0666825,8.05406627 39.6144393,7.30293873 38.8669265,6.99163201 C36.5572273,6.02857634 34.9870928,3.8749717 34.7693166,1.37134647 C34.7021557,0.600662499 34.0464427,0 33.2738936,0 L33.2647534,0 L17.6333511,0.0921947386 C16.8453033,0.0965848864 16.2050891,0.698045659 16.144684,1.49107986 C15.9523414,3.99550337 14.4052563,6.16467337 12.1070817,7.15207471 C11.3671195,7.46976731 10.9260035,8.22488591 11.0102528,9.03109076 C11.3774519,12.5596338 13.4832841,24.492663 25.1498086,29.8974284 L25.1498086,29.8974284 Z M12.7071584,8.56093759 C15.5251346,7.35083209 17.4235229,4.69394811 17.6647458,1.62438309 L33.2512417,1.53258744 C33.5282307,4.59536759 35.4536424,7.22790591 38.2819511,8.40688067 C38.4083248,8.45996245 38.4850234,8.58528345 38.472704,8.71938485 C38.1667045,12.0300132 36.3358745,23.1927575 25.6147688,28.4239094 C14.8320658,23.320074 12.8724775,12.1788817 12.5275328,8.87184532 C12.5136237,8.73814311 12.5859509,8.61322119 12.7071584,8.56093759 Z" id="Shape"></path>
          <path d="M15.5763506,12.4632561 C15.6687944,12.7884722 16.100332,13.0862695 16.5155326,12.9769757 C16.9227638,12.8695858 17.1638353,12.4693491 17.0530619,12.0797752 C16.8582126,11.3935463 16.6944434,10.697797 16.5657392,10.0085217 C18.6441328,8.71413103 20.186591,6.78225589 20.9432761,4.52592626 L31.9919147,4.46385337 C32.7760939,6.71104344 34.3420614,8.62616271 36.4363937,9.89694288 C36.3164557,10.5881223 36.1610543,11.2861565 35.9741742,11.975051 C35.8681826,12.3661482 36.1140355,12.7652425 36.5228607,12.8665392 C36.9324826,12.9678361 37.3496755,12.7328731 37.4556673,12.341776 C37.674823,11.5329247 37.8533354,10.7118873 37.9856257,9.90151267 C38.0597403,9.4487234 37.8429753,9.00355053 37.4341501,8.76744515 C35.4832653,7.64137483 34.0412203,5.87477341 33.3737914,3.79323794 C33.2235702,3.32521607 32.7617492,3 32.2493231,3 L32.2421507,3 L20.6747106,3.06473862 C20.1590969,3.06778514 19.6976744,3.39947505 19.5530315,3.87092423 C18.9115029,5.95969521 17.490975,7.74229082 15.5540365,8.89044846 C15.1480006,9.13074284 14.9372125,9.57820064 15.0165071,10.0306089 C15.1591576,10.8390795 15.3472331,11.6574512 15.5763506,12.4632561 Z" id="Path"></path>
          <path d="M35.5191412,15.0595935 C35.1227786,14.8942691 34.6689836,15.08484 34.5051807,15.4838987 C32.7106281,19.8629572 29.8697589,23.192247 26.0590144,25.383405 C22.2187448,23.2345961 19.3366215,19.9334033 17.4915125,15.5681897 C17.3232606,15.171167 16.867039,14.986297 16.4726986,15.1552862 C16.0779536,15.3242752 15.8943325,15.7835999 16.06218,16.1806226 C18.0759453,20.9440806 21.2484651,24.5352016 25.4915685,26.853407 C25.6703362,26.9515428 25.8660909,27 26.061441,27 C26.2616447,27 26.4614439,26.9490996 26.6434471,26.8468918 C30.854599,24.4814509 33.982629,20.8589751 35.9409844,16.0800435 C36.1047874,15.6809848 35.9159085,15.2241034 35.5191412,15.0595935 Z" id="Path"></path>
          <path d="M4.49981601,40 C3.12166043,40 2,41.1213749 2,42.5 C2,43.878625 3.12166043,45 4.49981601,45 C5.87833957,45 7,43.878625 7,42.5 C7,41.1213749 5.87870755,40 4.49981601,40 L4.49981601,40 Z M4.49981601,43.5867805 C3.90071392,43.5867805 3.4131155,43.0995142 3.4131155,42.5 C3.4131155,41.9008538 3.90071392,41.4132195 4.49981601,41.4132195 C5.09928608,41.4132195 5.5868845,41.9008538 5.5868845,42.5 C5.5868845,43.0995142 5.09928608,43.5867805 4.49981601,43.5867805 Z" id="Shape"></path>
          <path d="M51.4537039,31.6189142 C50.4773549,30.1637833 48.5115652,29.7782702 47.0718374,30.7593568 L37.113952,37.5195184 L34.9882806,37.3983917 L34.9339288,36.8462789 C34.7220757,34.6841056 33.0927118,32.961369 30.9718012,32.6571437 C30.9583123,32.6551316 30.9452203,32.653522 30.9317316,32.6523147 L20.2018123,31.6985923 C19.8388058,31.641047 18.6767879,31.3026164 15.4839169,29.445071 C13.8244016,28.4796785 11.9546201,27.9348093 10.055084,27.860765 L10.055084,25.8394368 C10.055084,24.8249498 9.24179062,24 8.24163807,24 L1.81344603,24 C0.813690195,24 0,24.8253522 0,25.8394368 L0,45.7472858 C0,46.7613704 0.813690195,47.5867226 1.81344603,47.5867226 L8.24163807,47.5867226 C9.24139391,47.5867226 10.055084,46.7613704 10.055084,45.7472858 L10.055084,45.1987948 L19.4345394,48.801612 C19.4551693,48.8096603 20.2168881,49.098594 21.6173396,48.9645899 C21.621307,48.9641875 37.2020256,46.6857164 37.2020256,46.6857164 C37.205993,46.685314 37.2095635,46.6845092 37.2135307,46.6837044 C38.5449516,46.4684127 39.8005973,45.8973864 40.8451836,45.0334024 C40.854705,45.0253541 40.8638297,45.0173058 40.8729545,45.0092575 L50.9383535,35.8265605 C52.1245717,34.7581499 52.3463429,32.9492967 51.4537039,31.6189142 L51.4537039,31.6189142 Z M49.9231252,34.6744477 L39.8684379,43.8474868 C39.0361016,44.5319939 38.0371391,44.9847103 36.9786675,45.1569437 L21.4054867,47.4342075 C21.401916,47.4346099 21.3967586,47.4354147 21.3919978,47.4362196 C21.3896175,47.436622 21.3868404,47.4370244 21.3844601,47.4374268 C20.9187008,47.5118735 20.4335018,47.4804851 19.9419551,47.3440667 L10.055084,43.5464807 L10.055084,34.7227374 C10.055084,34.2957756 9.71389749,33.9501015 9.29336527,33.9501015 C8.87243635,33.9501015 8.53164654,34.2957756 8.53164654,34.7227374 L8.53164654,45.7472858 C8.53164654,45.9094588 8.40151959,46.0414508 8.24163807,46.0414508 L1.81344603,46.0414508 C1.65356442,46.0414508 1.52343747,45.9094588 1.52343747,45.7472858 L1.52343747,25.8394368 C1.52343747,25.6772637 1.65356442,25.5452718 1.81344603,25.5452718 L8.24163807,25.5452718 C8.40151959,25.5452718 8.53164654,25.6772637 8.53164654,25.8394368 L8.53164654,31.2325962 C8.53164654,31.6595581 8.87283305,32.0052321 9.29336527,32.0052321 C9.71429429,32.0052321 10.055084,31.6591556 10.055084,31.2325962 L10.055084,29.4076463 C11.6892088,29.4808858 13.2967527,29.9541253 14.7257688,30.7859162 C18.5768124,33.0261578 19.6523434,33.1806849 20.0058285,33.2313892 C20.0193172,33.2334013 20.0324093,33.2346085 20.045898,33.2362182 L30.7770074,34.1899407 C32.1917413,34.402013 33.276397,35.5545282 33.4180291,36.9991964 L33.4584954,37.4108664 L19.091766,38.3106654 C19.0818477,38.3098605 19.0719295,38.3090556 19.0632016,38.3082509 C18.5974422,38.265595 18.17691,38.0422549 17.8781735,37.6792769 C17.6087948,37.3513092 17.1283566,37.3070435 16.8054196,37.5806854 C16.4820858,37.8539249 16.4384457,38.3412488 16.7082211,38.6688143 C17.2672116,39.3488948 18.0559078,39.7557359 18.9275204,39.8474864 C19.3980404,39.8973858 34.296386,38.9066413 34.296386,38.9066413 L37.2829583,39.0768627 C37.4479973,39.0865206 37.6118462,39.0406453 37.7491143,38.9472851 L47.9204397,32.0426568 C48.6674795,31.5336023 49.6874685,31.7331999 50.1940908,32.4881296 C50.657073,33.1786729 50.5420217,34.1171036 49.9231252,34.6744477 Z" id="Shape"></path>
        </g>
      </g>
    </g>
  </g>
</svg>